HIERARCHY
ROOT Hips
{
	OFFSET 0.00000 0.00000 0.00000
	CHANNELS 6 Xposition Yposition Zposition Yrotation Zrotation Xrotation 
	JOINT Lumbar
	{
		OFFSET 0 0 0
		CHANNELS 3 Zrotation Xrotation Yrotation
		JOINT Neck
		{
			OFFSET 0.00 0.2701 0.00
			CHANNELS 3 Zrotation Xrotation Yrotation
			End Site
			{
				OFFSET 0.00 0.1379 0.00
			}
		}
		JOINT RightShoulder
		{
			OFFSET 0.0119 0.2289 0.1181
			CHANNELS 3 Zrotation Xrotation Yrotation
			JOINT RightElbow
			{
				OFFSET 0.00 -0.1475 0.00
				CHANNELS 2 Zrotation Yrotation
				JOINT RightWrist
				{
					OFFSET 0.00 -0.1605 0.00
					CHANNELS 2 Zrotation Xrotation
					End Site
					{
						OFFSET 0.0040 -0.1068 0.0006
					}
				}
			}
		}
		JOINT LeftShoulder
		{
			OFFSET 0.0119 0.2289 -0.1181
			CHANNELS 3 Zrotation Xrotation Yrotation
			JOINT LeftElbow
			{
				OFFSET 0.00 -0.1475 0.00
				CHANNELS 2 Zrotation Yrotation
				JOINT LeftWrist
				{
					OFFSET 0.00 -0.1605 0.00
					CHANNELS 2 Zrotation Xrotation
					End Site
					{
						OFFSET 0.0040 -0.1068 -0.0006
					}
				}
			}
		}
	}
	JOINT RightHip
	{
		OFFSET 0.0316 -0.0424 0.0458
		CHANNELS 3 Zrotation Xrotation Yrotation
		JOINT RightKnee
		{
			OFFSET 0.00 -0.2438 0.00
			CHANNELS 1 Zrotation
			JOINT RightAnkle
			{
				OFFSET 0.00 -0.2449 0.00
				CHANNELS 3 Zrotation Xrotation Yrotation
				End Site
				{
					OFFSET 0.1237 -0.0542 0.0051
				}
			}
		}
	}
	JOINT LeftHip
	{
		OFFSET 0.0316 -0.0424 -0.0458
		CHANNELS 3 Zrotation Xrotation Yrotation
		JOINT LeftKnee
		{
			OFFSET 0.00 -0.2438 0.00
			CHANNELS 1 Zrotation
			JOINT LeftAnkle
			{
				OFFSET 0.00 -0.2449 0.00
				CHANNELS 3 Zrotation Xrotation Yrotation
				End Site
				{
					OFFSET 0.1237 -0.0542 -0.0051
				}
			}
		}
	}
}
MOTION
Frames: 19
Frame Time: 0.02
-0.00103 8e-05 0.00011 176.4373 -46.55873 2.0809 58.49605 -0.06588 0.67648 -4.96661 -1.59242 -0.52606 147.55068 -71.30749 -65.20725 12.91526 69.53429 3.58995 -8.76677 150.69871 72.9692 78.25531 9.73262 -68.10154 5.58658 10.01412 48.08915 -0.99278 -11.73061 -18.87771 -6.9954 -3.60687 -3.99921 51.79884 2.87262 11.6034 -24.54281 -7.55237 3.62302 4.00068
-0.00062 8e-05 0.00045 176.3999 -46.51861 2.0634 58.45011 -0.068 0.70818 -5.12538 -1.56768 -0.52952 147.58385 -71.316 -65.17492 12.88506 69.53839 3.57702 -8.74337 150.60568 72.88773 78.88898 9.59389 -69.89415 5.24357 10.06027 48.09722 -1.02349 -11.78595 -18.87946 -6.99312 -3.60004 -3.99623 51.80246 2.85651 11.62151 -24.54901 -7.54631 3.61497 3.99973
-0.00021 9e-05 0.00079 176.36249 -46.47866 2.04586 58.40418 -0.07011 0.73981 -5.28377 -1.54296 -0.53297 147.61663 -71.32458 -65.14314 12.85487 69.54258 3.56428 -8.71966 150.5126 72.8064 79.52129 9.45533 -71.67837 4.9019 10.10554 48.10545 -1.0542 -11.84194 -18.88125 -6.9908 -3.59314 -3.99322 51.80626 2.84048 11.63944 -24.55521 -7.54029 3.60697 3.99879
0.0002 0.0001 0.00113 176.3252 -46.43867 2.02841 58.35837 -0.07222 0.77143 -5.44208 -1.51829 -0.53641 147.64984 -71.33305 -65.11095 12.82476 69.54668 3.55141 -8.69627 150.41976 72.72512 80.15317 9.31694 -73.46483 4.56 10.15141 48.11351 -1.08485 -11.89727 -18.883 -6.98852 -3.58632 -3.99025 51.80989 2.82441 11.65746 -24.56141 -7.53425 3.59895 3.99785
0.00061 0.0001 0.00147 176.28795 -46.3985 2.011 58.31258 -0.07434 0.80306 -5.60071 -1.4936 -0.53986 147.68304 -71.34147 -65.07816 12.79465 69.55068 3.53827 -8.6733 150.32722 72.64386 80.78601 9.17857 -75.26122 4.2166 10.19848 48.12137 -1.11539 -11.95154 -18.88471 -6.9863 -3.57959 -3.98732 51.81329 2.80828 11.67575 -24.5676 -7.52814 3.59088 3.99689
0.00103 0.00011 0.0018 176.25017 -46.35903 1.9932 58.26634 -0.07645 0.83466 -5.75855 -1.46882 -0.54332 147.71463 -71.35041 -65.04856 12.76429 69.5553 3.5264 -8.64804 150.23305 72.56245 81.41705 9.03971 -77.02004 3.87856 10.23998 48.13041 -1.14645 -12.01106 -18.88669 -6.98378 -3.57236 -3.98413 51.81793 2.79247 11.69295 -24.57382 -7.52232 3.583 3.99601
0.00143 0.00011 0.00214 176.21358 -46.31815 1.97626 58.22114 -0.07853 0.86641 -5.91787 -1.44427 -0.54673 147.75081 -71.35814 -65.01227 12.73453 69.55858 3.51198 -8.62748 150.14199 72.4811 82.05149 8.9017 -78.85113 3.53025 10.29253 48.13696 -1.17656 -12.06025 -18.88806 -6.98184 -3.56613 -3.98147 51.82002 2.77595 11.71221 -24.57998 -7.51594 3.57476 3.99497
0.00185 0.00012 0.00248 176.17575 -46.27864 1.95842 58.17481 -0.08072 0.89778 -6.07572 -1.41949 -0.55025 147.78022 -71.36727 -64.98269 12.7041 69.56323 3.49993 -8.60245 150.04857 72.40032 82.68192 8.76342 -80.61811 3.19117 10.3351 48.14601 -1.20734 -12.11843 -18.89009 -6.9794 -3.559 -3.97834 51.82457 2.76027 11.72976 -24.58618 -7.51007 3.56683 3.99407
0.00227 0.00012 0.00282 176.13694 -46.24054 1.93987 58.12775 -0.08275 0.92967 -6.23228 -1.39448 -0.55362 147.81137 -71.37702 -64.95926 12.67327 69.56908 3.4907 -8.57241 149.95015 72.31772 83.3113 8.62265 -82.29689 2.86422 10.36451 48.15737 -1.23976 -12.1899 -18.89256 -6.97619 -3.55065 -3.97456 51.83173 2.74489 11.74446 -24.59252 -7.50482 3.55936 3.99338
0.00263 0.00012 0.00316 176.10538 -46.19354 1.92659 58.08684 -0.08483 0.96153 -6.3978 -1.37093 -0.55702 147.86264 -71.3799 -64.8943 12.646 69.56658 3.46504 -8.57258 149.87412 72.23798 83.95834 8.48974 -84.45356 2.47002 10.46675 48.15317 -1.26521 -12.1918 -18.89143 -6.97696 -3.54895 -3.97427 51.82267 2.72557 11.77327 -24.59831 -7.496 3.54949 3.99158
0.00313 0.00014 0.00348 176.05748 -46.1658 1.90143 58.03171 -0.08734 0.99155 -6.54339 -1.34424 -0.56087 147.85223 -71.39937 -64.92082 12.61042 69.58263 3.47417 -8.50813 149.75497 72.15709 84.5606 8.34441 -85.62108 2.21606 10.41725 48.18322 -1.30376 -12.336 -18.89856 -6.96963 -3.5335 -3.96678 51.84858 2.71599 11.77378 -24.6051 -7.49471 3.54453 3.99205
0.00397 0.00018 0.00376 175.97248 -46.18753 1.84947 57.94676 -0.0867 1.03203 -6.64136 -1.30887 -0.5618 147.81133 -71.44513 -65.17223 12.55717 69.63449 3.58151 -8.27406 149.48594 72.03965 85.10382 8.12943 -83.88214 2.35723 9.9293 48.29692 -1.39214 -12.91246 -18.92407 -6.9373 -3.47758 -3.93811 51.96554 2.72171 11.6835 -24.61599 -7.5144 3.55436 3.99945
0.00495 0.00023 0.004 175.86931 -46.22921 1.78442 57.84549 -0.08743 1.06763 -6.71737 -1.27009 -0.5639 147.67087 -71.50938 -65.52234 12.4938 69.70233 3.72515 -7.97537 149.18198 71.93189 85.59242 7.90796 -81.18013 2.63248 9.29174 48.44718 -1.49118 -13.62458 -18.95927 -6.89728 -3.40828 -3.90245 52.11858 2.73941 11.56701 -24.62768 -7.54163 3.56889 4.00902
0.00589 0.00029 0.00424 175.76982 -46.264 1.72166 57.74607 -0.09017 1.09557 -6.79965 -1.23324 -0.56822 147.50057 -71.57989 -65.84185 12.43273 69.7797 3.84806 -7.69902 148.91134 71.83551 86.06159 7.71345 -79.0512 2.84583 8.73871 48.58715 -1.57614 -14.24671 -18.9921 -6.86269 -3.347 -3.871 52.25828 2.75894 11.47139 -24.63809 -7.56517 3.58034 4.01711
0.00673 0.00032 0.00457 175.69095 -46.28973 1.67467 57.67143 -0.08123 1.16589 -6.90019 -1.19584 -0.56111 147.69602 -71.59559 -66.09325 12.38469 69.80869 3.98131 -7.44515 148.55654 71.65333 86.70855 7.42006 -76.37099 3.08341 8.12099 48.69945 -1.69974 -14.9867 -19.01397 -6.82023 -3.27787 -3.83536 52.38501 2.74738 11.33885 -24.6522 -7.58971 3.59562 4.0272
0.00781 0.00041 0.00469 175.56317 -46.33895 1.5913 57.53964 -0.09765 1.14592 -6.9542 -1.15743 -0.57783 147.04469 -71.72101 -66.5201 12.30294 69.91403 4.11117 -7.13797 148.38183 71.67626 86.98342 7.32794 -74.58277 3.27737 7.59576 48.87937 -1.74586 -15.51591 -19.06399 -6.79192 -3.22149 -3.80656 52.54749 2.80395 11.2758 -24.65901 -7.6141 3.60423 4.03374
0.00948 0.00068 0.00422 175.31816 -46.44897 1.41439 57.26896 -0.17768 0.88681 -6.91284 -1.12891 -0.66216 144.62246 -72.21539 -67.31493 12.16783 70.48742 4.13067 -6.6208 148.59652 72.06055 86.14633 7.81891 -75.74607 3.52348 7.42573 49.22558 -1.57168 -15.40672 -19.16402 -6.8081 -3.20719 -3.80023 52.7978 3.04137 11.42237 -24.64364 -7.63486 3.59159 4.02907
0.01138 0.001 0.00351 175.02151 -46.58179 1.20073 56.93895 -0.28417 0.53658 -6.82008 -1.09746 -0.76997 141.26308 -72.80289 -68.2966 11.99333 71.10218 4.1556 -6.06454 149.01196 72.69098 84.95352 8.50688 -77.79973 3.67758 7.34541 49.6407 -1.32023 -15.08463 -19.29723 -6.83806 -3.20553 -3.80067 53.08295 3.3479 11.63839 -24.62126 -7.65539 3.57235 4.02091
0.0132 0.00128 0.00289 174.74045 -46.70364 1.00134 56.62579 -0.38276 0.22055 -6.73289 -1.05935 -0.86571 137.96026 -73.30599 -69.25773 11.811 71.50917 4.2474 -5.58076 149.41624 73.33887 83.98956 9.08902 -79.27232 3.74548 7.17855 50.03183 -1.10613 -14.87563 -19.43127 -6.85945 -3.19569 -3.79676 53.35382 3.62543 11.8143 -24.60321 -7.67699 3.55726 4.01496
